<svg xmlns="http://www.w3.org/2000/svg" width="870" height="870" viewBox="0 0 870 870" version="1.1"><path d="M 420.779 41.801 C 394.886 69.684, 375.220 97.247, 360.345 126.500 C 356.710 133.650, 353.596 139.661, 353.426 139.858 C 353.256 140.056, 346.453 135.772, 338.308 130.340 C 320.974 118.777, 294.871 105.209, 275.336 97.606 C 259.930 91.610, 233.794 83, 230.998 83 C 229.495 83, 228.574 85.521, 225.563 97.877 C 217.008 132.983, 213.605 162.284, 214.156 196.089 L 214.508 217.678 185.004 217.222 C 161.738 216.862, 152.434 217.115, 141 218.416 C 116.445 221.211, 76.906 228.694, 74.621 230.979 C 72.570 233.030, 87.734 275.072, 99.122 298.907 C 107.550 316.545, 112.752 325.713, 123.745 342.302 C 128.411 349.343, 132.065 355.246, 131.864 355.420 C 131.664 355.593, 125.580 358.731, 118.345 362.393 C 87.785 377.861, 55.606 401.008, 29.096 426.594 L 19.500 435.855 30 445.767 C 59.708 473.812, 87.920 493.920, 118.958 509.170 C 126.045 512.651, 131.878 515.838, 131.921 516.250 C 131.965 516.663, 129.126 521.163, 125.614 526.250 C 112.991 544.534, 99.655 569.710, 90.101 593.294 C 83.791 608.870, 73.805 638.751, 74.209 640.849 C 74.768 643.748, 107.994 650.840, 136 654.038 C 156.076 656.330, 187.335 657.082, 204.500 655.687 L 214.500 654.874 214.136 677.187 C 213.721 702.609, 215.081 723.054, 218.582 744 C 221.917 763.953, 228.858 792, 230.461 792 C 232.870 792, 268.753 780.006, 278.609 775.906 C 300.090 766.971, 323.241 754.567, 343.505 741.136 C 348.452 737.857, 352.789 735.473, 353.143 735.837 C 353.497 736.202, 357.033 742.575, 361 750 C 376.737 779.451, 395.721 804.999, 425.270 836.494 C 433.063 844.800, 433.846 845.373, 435.517 843.994 C 436.512 843.172, 442.940 836.456, 449.802 829.070 C 476.373 800.464, 495.979 772.874, 511.083 742.836 C 513.734 737.562, 515.469 735.152, 516.281 735.615 C 516.952 735.997, 520.875 738.639, 525 741.485 C 542.682 753.686, 567.865 767.286, 588.370 775.708 C 607.025 783.371, 637.313 793.020, 638.617 791.716 C 639.729 790.604, 646.941 759.510, 649.372 745.347 C 653.596 720.733, 655.392 690.961, 654.120 666.626 L 653.500 654.753 661 655.350 C 698.797 658.358, 736.202 655.686, 773.500 647.311 C 782.300 645.335, 790.513 643.504, 791.750 643.242 C 792.987 642.981, 793.994 642.257, 793.986 641.633 C 793.961 639.637, 786.336 614.836, 782.628 604.690 C 772.401 576.708, 754.896 542.318, 741.808 524.500 C 739.384 521.200, 737.068 517.951, 736.660 517.280 C 736.152 516.443, 739.158 514.437, 746.209 510.905 C 780.972 493.494, 809.280 473.406, 839 445.058 L 848.500 435.996 838.179 426.006 C 810.517 399.230, 784.637 380.570, 751.103 363.226 C 743.071 359.072, 736.351 355.560, 736.168 355.421 C 735.986 355.283, 738.298 351.644, 741.306 347.335 C 753.874 329.333, 766.604 306.111, 776.025 284 C 782.954 267.735, 792.807 239.068, 793.225 233.951 L 793.500 230.595 782 227.828 C 744.983 218.918, 697.732 214.831, 662.642 217.503 L 652.785 218.254 653.522 215.929 C 653.928 214.651, 654.263 203.231, 654.267 190.552 C 654.277 154.142, 650.113 123.671, 639.966 85.885 L 638.996 82.270 632.248 84.138 C 595.554 94.299, 559.590 110.451, 530.500 129.837 C 523.350 134.602, 516.974 138.840, 516.330 139.255 C 515.544 139.762, 512.898 135.656, 508.273 126.755 C 491.655 94.770, 466.626 60.694, 441.834 36.301 L 433.500 28.101 420.779 41.801 M 425.657 51.250 C 401.573 77.764, 382.894 104.203, 368.508 132.138 C 364.929 139.089, 362 145.241, 362 145.808 C 362 146.376, 366.836 150.814, 372.746 155.670 C 393.696 172.883, 415.966 196.288, 429.050 214.840 C 431.439 218.228, 433.673 221, 434.015 221 C 434.356 221, 438.734 215.713, 443.743 209.250 C 453.770 196.315, 468.672 179.900, 479.500 169.863 C 488.058 161.930, 500.488 151.211, 504.376 148.412 L 507.251 146.342 501.072 134.221 C 492.545 117.496, 481.201 99.676, 467.641 81.703 C 456.416 66.826, 435.712 43, 434.009 43 C 433.537 43, 429.779 46.712, 425.657 51.250 M 233.695 106.304 C 225.978 139.071, 221.999 179.865, 223.774 208 L 224.500 219.500 227.500 219.791 C 250.834 222.052, 286.708 231.756, 311.925 242.627 C 318.759 245.573, 324.448 247.875, 324.569 247.742 C 324.690 247.609, 325.536 241.650, 326.450 234.500 C 329.642 209.517, 336.427 182.590, 345.175 160.184 C 349.042 150.281, 349.129 149.812, 347.351 148.438 C 330.634 135.515, 297.041 117.021, 273 107.504 C 263.905 103.904, 238.249 95, 236.970 95 C 236.633 95, 235.159 100.087, 233.695 106.304 M 617 99.451 C 583.675 110.911, 559.146 122.775, 533.500 139.842 C 526.350 144.600, 520.143 148.758, 519.706 149.082 C 519.270 149.407, 520.486 153.574, 522.409 158.343 C 527.381 170.678, 532.701 187.528, 536.028 201.484 C 538.937 213.685, 542.985 238.826, 542.995 244.750 C 542.998 246.537, 543.300 248, 543.668 248 C 544.035 248, 549.997 245.581, 556.918 242.624 C 580.100 232.720, 605.687 225.384, 632.295 221.016 C 638.232 220.041, 643.405 218.928, 643.790 218.544 C 644.174 218.159, 644.477 206.292, 644.464 192.172 C 644.435 162.880, 642.956 147.720, 637.423 120 C 633.042 98.050, 632.216 94.981, 630.711 95.077 C 630.045 95.119, 623.875 97.087, 617 99.451 M 353.728 165.270 C 343.540 191.976, 337.236 218.427, 334.458 246.128 L 333.793 252.756 343.147 258.025 C 359.769 267.388, 384.610 285.382, 391.924 293.357 C 393.258 294.810, 394.833 295.997, 395.424 295.994 C 396.016 295.991, 398.273 291.153, 400.440 285.244 C 405.143 272.420, 415.849 250.433, 423.024 238.864 L 428.198 230.523 426.516 227.399 C 423.558 221.908, 406.996 201.984, 395.569 190.171 C 385.597 179.863, 366.684 162.771, 359.874 157.914 L 357.249 156.041 353.728 165.270 M 499.044 165.639 C 482.641 179.616, 466.056 196.555, 454 211.642 C 438.480 231.065, 439.169 228.759, 445.675 239.500 C 453.535 252.477, 460.508 266.564, 466.700 281.974 C 469.678 289.385, 472.304 295.637, 472.534 295.868 C 472.765 296.098, 476.271 293.317, 480.326 289.688 C 494.144 277.321, 515.031 262.859, 528.658 256.223 L 534.249 253.500 533.652 245 C 532.866 233.818, 529.660 215.288, 526.038 201 C 522.973 188.908, 514.924 164.795, 512.092 159.220 L 510.426 155.940 499.044 165.639 M 146 228.155 C 128.224 229.877, 93.977 235.593, 87.845 237.862 C 86.164 238.483, 86.355 239.472, 90.386 251.017 C 104.084 290.243, 119.110 319.660, 141.072 350.246 C 141.387 350.684, 147.237 349.004, 154.072 346.513 C 179.103 337.390, 207.921 330.646, 233.655 327.890 L 244.810 326.695 241.310 319.097 C 228.851 292.054, 222.063 268.820, 216.302 233.500 L 215.487 228.500 208.493 227.810 C 199.145 226.888, 156.659 227.122, 146 228.155 M 657.501 227.907 L 652.503 228.500 651.716 234.500 C 648.263 260.836, 639.661 291.402, 628.942 315.426 C 626.252 321.453, 624.212 326.545, 624.408 326.741 C 624.603 326.937, 628.969 327.532, 634.109 328.064 C 663.201 331.074, 688.969 337.049, 714.256 346.648 C 720.722 349.103, 726.392 350.876, 726.856 350.589 C 728.390 349.641, 742.641 327.690, 748.878 316.668 C 756.161 303.799, 763.649 288.268, 769.208 274.500 C 773.386 264.156, 782.168 238.835, 781.731 238.398 C 781.594 238.261, 774.962 236.801, 766.991 235.154 C 750.340 231.711, 735.421 229.498, 719 228.033 C 707.007 226.963, 666.166 226.879, 657.501 227.907 M 226 231.401 C 226 235.822, 230.571 258.552, 233.984 271.105 C 238.228 286.715, 242.293 298.054, 249.806 315.238 L 254.500 325.976 261.500 326.024 C 280.154 326.152, 306.201 328.778, 321.453 332.068 C 326.377 333.131, 330.694 334, 331.046 334 C 331.397 334, 330.666 329.063, 329.420 323.029 C 326.022 306.574, 324.828 295.341, 324.420 276 L 324.051 258.500 312.276 253.141 C 292.211 244.011, 262.928 235.267, 239.913 231.535 C 228.241 229.642, 226 229.620, 226 231.401 M 633 230.698 C 609.558 234.685, 574.177 245.162, 555 253.796 L 544.500 258.523 543.871 277.011 C 543.262 294.920, 541.496 310.629, 538.381 325.855 C 537.553 329.900, 537.037 333.371, 537.235 333.568 C 537.432 333.766, 541.848 333.040, 547.047 331.956 C 560.914 329.065, 579.356 327.088, 597.500 326.546 L 613.500 326.068 616.890 318.784 C 629.082 292.584, 638.493 260.877, 641.534 235.750 L 642.230 230 638.865 230.136 C 637.014 230.211, 634.375 230.464, 633 230.698 M 426.781 250.750 C 416.422 269.205, 411.130 280.643, 405.938 295.797 L 403.095 304.095 409.716 311.297 C 416.835 319.043, 424.408 328.957, 430.400 338.378 L 434.138 344.255 440.319 334.820 C 446.424 325.501, 457.338 311.785, 462.396 307.076 C 463.828 305.742, 465 303.978, 465 303.156 C 465 300.399, 453.877 273.615, 448.324 263 C 442.180 251.256, 434.844 239, 433.958 239 C 433.638 239, 430.409 244.287, 426.781 250.750 M 333.525 265.922 C 332.621 268.770, 334.787 303.514, 336.470 313.166 C 337.271 317.761, 338.618 324.807, 339.463 328.825 C 340.308 332.843, 341 336.289, 341 336.483 C 341 336.677, 344.712 338.064, 349.250 339.566 C 360.478 343.282, 373.759 349.101, 380.867 353.419 C 384.109 355.389, 387.040 357, 387.381 357 C 387.721 357, 388.003 352.613, 388.006 347.250 C 388.012 337.161, 389.936 321.836, 392.363 312.540 L 393.757 307.202 387.629 301.276 C 379.339 293.261, 373.499 288.635, 360.500 279.784 C 350.296 272.837, 335.820 264, 334.643 264 C 334.363 264, 333.860 264.865, 333.525 265.922 M 522.985 270.154 C 507.296 279.429, 493.694 289.494, 479.721 302.166 L 474.943 306.500 477.030 316.500 C 478.325 322.700, 479.336 332.294, 479.693 341.750 C 480.009 350.137, 480.446 357, 480.665 357 C 480.883 357, 484.290 355.170, 488.237 352.934 C 496.313 348.357, 510.185 342.336, 520.183 339.067 L 526.867 336.881 528.396 330.157 C 530.948 318.936, 532.893 306.130, 533.963 293.500 C 535.186 279.065, 535.305 264, 534.196 264 C 533.755 264, 528.709 266.769, 522.985 270.154 M 398.639 321.750 C 396.620 331.231, 395.033 346.108, 395.039 355.500 L 395.043 362.500 400.516 366.421 C 403.526 368.577, 408.936 373.246, 412.538 376.794 C 416.139 380.343, 419.225 383.079, 419.394 382.874 C 419.563 382.668, 420.421 379.575, 421.301 376 C 422.180 372.425, 424.445 365.675, 426.334 361 C 429.591 352.938, 429.690 352.345, 428.247 349.500 C 423.868 340.863, 403.303 314, 401.070 314 C 400.641 314, 399.547 317.488, 398.639 321.750 M 459.503 322.659 C 451.554 331.751, 439 349.699, 439 351.971 C 439 352.676, 440.534 357.133, 442.409 361.876 C 444.285 366.619, 446.381 373.087, 447.069 376.250 C 447.756 379.413, 448.701 382, 449.169 382 C 449.637 382, 453.369 378.894, 457.463 375.099 C 461.557 371.303, 466.760 366.915, 469.026 365.349 L 473.146 362.500 472.672 347.500 C 472.227 333.381, 469.849 316.525, 468.039 314.663 C 467.592 314.202, 463.751 317.800, 459.503 322.659 M 236 337.133 C 211.447 339.638, 171.704 349.413, 151.930 357.811 L 147.843 359.546 157.258 370.523 C 170.653 386.140, 192.489 406.945, 206.920 417.838 C 213.724 422.973, 220.322 427.645, 221.582 428.219 C 223.521 429.103, 225.079 428.558, 231.687 424.685 C 245.207 416.762, 268.275 406.138, 281.109 401.924 C 287.906 399.692, 293.620 397.713, 293.806 397.527 C 293.992 397.341, 290.525 393.245, 286.101 388.426 C 274.552 375.844, 253.948 346.333, 250.721 337.750 C 249.993 335.816, 249.227 335.784, 236 337.133 M 262.063 339.750 C 272.046 356.567, 285.411 374.889, 297.653 388.541 L 303.806 395.403 313.153 393.675 C 326.901 391.132, 336.464 390.066, 345.833 390.031 C 350.417 390.014, 354.012 389.663, 353.823 389.250 C 353.634 388.837, 350.949 383.550, 347.857 377.500 C 344.765 371.450, 340.548 361.550, 338.487 355.500 C 336.426 349.450, 334.262 344.195, 333.677 343.822 C 331.992 342.746, 310.961 338.972, 298.178 337.452 C 291.755 336.688, 280.501 336.048, 273.168 336.031 L 259.837 336 262.063 339.750 M 574.500 336.697 C 566.094 337.455, 539.383 342.231, 536.265 343.534 C 534.469 344.284, 533 345.630, 533 346.525 C 533 349.311, 524.120 371.045, 519.016 380.750 L 514.151 390 521.326 390.008 C 530.130 390.018, 543.610 391.479, 555.265 393.686 L 564.030 395.346 567.123 392.423 C 572.911 386.953, 586.203 370.529, 593.002 360.447 C 600.127 349.881, 608 337.300, 608 336.482 C 608 335.950, 580.857 336.124, 574.500 336.697 M 612.179 347.750 C 602.935 363.349, 595.386 373.756, 583.824 386.837 L 574.258 397.659 584.379 400.933 C 600 405.985, 614.217 412.252, 630.038 421.059 L 644.500 429.110 647.650 427.451 C 652.547 424.873, 669.117 412.195, 679.727 402.909 C 688.960 394.828, 709.940 372.961, 716.789 364.281 C 720.670 359.363, 721.267 359.949, 706.914 354.591 C 694.881 350.098, 675.636 344.575, 663.137 342.028 C 654.560 340.280, 624.310 336, 620.533 336 C 619.768 336, 616.009 341.288, 612.179 347.750 M 344.982 349.750 C 347.493 357.947, 350.562 365.551, 354.972 374.500 C 362.857 390.504, 363.008 390.684, 369.172 391.472 C 372.102 391.846, 378.914 393.292, 384.308 394.685 C 389.703 396.077, 394.276 397.056, 394.471 396.858 C 394.666 396.661, 393.792 392.635, 392.529 387.912 C 391.267 383.188, 389.914 376.571, 389.524 373.207 C 389.134 369.843, 388.293 366.663, 387.657 366.141 C 384.792 363.788, 364.628 353.768, 356.288 350.552 C 344.894 346.159, 343.859 346.085, 344.982 349.750 M 512 350.566 C 502.570 354.426, 487.185 361.848, 482.399 364.847 C 479.615 366.591, 479.231 367.441, 478.644 373.145 C 478.285 376.640, 476.907 383.550, 475.583 388.500 C 474.258 393.450, 473.250 397.577, 473.342 397.671 C 473.434 397.765, 477.332 396.734, 482.004 395.380 C 486.677 394.025, 493.751 392.433, 497.725 391.841 L 504.949 390.764 510.459 379.994 C 515.391 370.352, 524 349.888, 524 347.807 C 524 346.284, 520.488 347.092, 512 350.566 M 432.136 364.733 C 429.794 369.324, 425 385.111, 425 388.233 C 425 389.338, 427.104 393.564, 429.677 397.624 L 434.353 405.006 437.055 400.065 C 438.542 397.347, 440.659 393.978, 441.760 392.578 C 443.636 390.194, 443.678 389.635, 442.432 383.766 C 440.944 376.759, 437.949 367.689, 435.716 363.427 L 434.240 360.610 432.136 364.733 M 122 371.833 C 90.283 388.922, 72.384 401.427, 44.715 425.823 L 33.930 435.333 37.215 438.766 C 46.756 448.737, 71.859 468.862, 89.500 480.682 C 105.542 491.430, 134.684 507.097, 138.375 506.957 C 138.994 506.934, 141.300 504.573, 143.500 501.712 C 159.901 480.377, 185.079 456.127, 206.250 441.271 C 210.512 438.281, 213.989 435.533, 213.976 435.167 C 213.963 434.800, 210.476 432.033, 206.228 429.019 C 186.121 414.750, 160.348 390.458, 146 372.252 C 142.425 367.716, 138.825 364.008, 138 364.012 C 137.175 364.017, 129.975 367.536, 122 371.833 M 725.348 369.250 C 719.131 377.162, 700.706 396.577, 690 406.497 C 681.430 414.437, 667.663 425.318, 657.730 432 C 655.686 433.375, 654.022 434.725, 654.033 435 C 654.043 435.275, 656.377 437.075, 659.219 439 C 679.884 452.998, 708.728 480.583, 725.880 502.750 C 727.688 505.087, 729.729 507, 730.414 507 C 732.621 507, 760.230 492.505, 771.536 485.410 C 790.410 473.567, 821.487 448.997, 831.812 437.756 L 834.124 435.239 822.512 424.925 C 799.753 404.708, 781.012 391.299, 755.500 376.978 C 744.786 370.963, 730.975 364, 729.759 364 C 729.602 364, 727.617 366.363, 725.348 369.250 M 396 372.935 C 396 375.001, 399.013 387.902, 400.960 394.172 L 403.032 400.844 410.593 404.922 C 414.751 407.165, 418.344 409, 418.577 409 C 418.810 409, 419 405.360, 419 400.910 L 419 392.821 414.250 387.523 C 409.657 382.400, 397.834 372, 396.604 372 C 396.272 372, 396 372.421, 396 372.935 M 466 376.385 C 462.975 378.795, 458.182 383.182, 455.350 386.134 L 450.200 391.500 449.565 400.250 C 449.215 405.063, 449.283 408.970, 449.715 408.934 C 450.147 408.897, 453.834 406.985, 457.908 404.684 C 464.253 401.100, 465.517 399.926, 466.719 396.500 C 468.434 391.610, 472.197 374.090, 471.793 372.879 C 471.632 372.397, 469.025 373.975, 466 376.385 M 338.083 398.048 C 334.004 398.475, 326.363 399.599, 321.103 400.546 L 311.539 402.268 316.020 406.171 C 328.779 417.288, 347.812 430, 351.697 430 C 352.714 430, 356.910 428.706, 361.023 427.124 C 365.135 425.543, 371.087 423.671, 374.250 422.965 C 377.413 422.259, 380 421.395, 380 421.044 C 380 420.693, 378.168 418.627, 375.928 416.453 C 373.689 414.279, 369.302 409.350, 366.180 405.500 C 363.059 401.650, 360.053 398.169, 359.502 397.765 C 358.277 396.867, 348.081 397.001, 338.083 398.048 M 504.164 403.250 C 501.409 406.688, 496.646 411.960, 493.578 414.966 C 490.510 417.972, 488 420.727, 488 421.088 C 488 421.449, 489.836 422.038, 492.080 422.397 C 494.324 422.756, 500.826 424.770, 506.529 426.874 L 516.899 430.699 521.699 428.065 C 533.243 421.733, 557.197 403.863, 555.891 402.557 C 554.281 400.948, 524.507 397, 513.980 397 C 509.283 397, 509.057 397.144, 504.164 403.250 M 370.998 400.997 C 371.662 402.236, 376.007 407.019, 380.655 411.625 L 389.106 420 397.980 420 L 406.854 420 403.483 414.250 C 401.629 411.087, 399.524 407.686, 398.806 406.692 C 397.367 404.700, 383.680 400.491, 375.146 399.417 C 369.825 398.748, 369.800 398.757, 370.998 400.997 M 491 399.698 C 487.062 400.367, 473.889 404.093, 471.318 405.265 C 470.037 405.849, 467.956 408.165, 466.693 410.413 C 465.431 412.661, 463.582 415.738, 462.584 417.250 L 460.770 420 469.828 420 L 478.886 420 484.930 414.404 C 488.254 411.327, 492.822 406.602, 495.080 403.904 L 499.186 399 496.343 399.136 C 494.779 399.211, 492.375 399.464, 491 399.698 M 424 406.209 C 424 411.457, 424.465 413.215, 426.726 416.518 L 429.452 420.500 430.310 415.882 C 431.052 411.891, 430.820 410.578, 428.603 406.203 C 424.881 398.859, 424 398.860, 424 406.209 M 442.028 402 C 437.408 409.843, 436.274 414.299, 437.867 418.347 C 438.495 419.943, 438.967 419.655, 441.348 416.219 C 443.766 412.730, 444.065 411.469, 443.801 405.873 C 443.511 399.742, 443.444 399.595, 442.028 402 M 289.500 408.418 C 284 410.279, 275.900 413.230, 271.500 414.976 C 263.437 418.176, 238.160 430.892, 234.559 433.561 C 232.637 434.985, 232.637 435.015, 234.559 436.461 C 242.334 442.313, 275.747 457.408, 292.247 462.522 C 302.350 465.654, 299.501 466.731, 316 453.544 C 321.775 448.928, 330.194 442.980, 334.710 440.326 C 339.225 437.672, 342.938 435.245, 342.960 434.934 C 342.982 434.623, 341.087 433.316, 338.750 432.029 C 332.082 428.359, 317.204 417.803, 309.258 411.105 C 305.275 407.747, 301.450 405.008, 300.758 405.017 C 300.066 405.027, 295 406.557, 289.500 408.418 M 559.884 410.534 C 552.192 417.409, 543.582 423.640, 532.923 430.046 L 524.991 434.814 534.745 440.882 C 543.867 446.557, 551.203 451.996, 562.456 461.429 L 567.143 465.358 574.822 463.119 C 591.153 458.357, 611.428 449.322, 631.804 437.727 L 636.109 435.278 631.304 432.215 C 617.579 423.464, 581.096 407.609, 569.816 405.493 C 566.532 404.877, 565.795 405.251, 559.884 410.534 M 407 409.701 C 407 410.155, 408.581 412.875, 410.514 415.745 C 413.657 420.412, 418.163 424, 420.881 424 C 422.219 424, 420.500 418.210, 418.508 416.009 C 416.534 413.827, 407 408.602, 407 409.701 M 455.412 411.950 C 452.656 413.523, 449.927 415.416, 449.346 416.156 C 448.282 417.510, 445.847 424, 446.403 424 C 446.567 424, 448.136 423.500, 449.889 422.889 C 452.043 422.138, 454.390 419.843, 457.128 415.812 C 459.356 412.531, 461.009 409.675, 460.800 409.467 C 460.592 409.259, 458.167 410.376, 455.412 411.950 M 457.419 426.075 C 455.724 426.567, 453.543 427.848, 452.571 428.921 C 450.855 430.818, 450.909 430.892, 454.512 431.568 C 457.461 432.121, 459.421 431.689, 464.109 429.448 C 467.349 427.899, 470 426.265, 470 425.816 C 470 424.750, 461.370 424.928, 457.419 426.075 M 382.500 427.120 C 376.731 428.445, 362.650 433.111, 361.643 434.032 C 360.520 435.057, 362.797 436.188, 372.500 439.428 C 385.430 443.746, 387.536 443.765, 394.368 439.635 C 397.596 437.684, 400.746 435.905, 401.368 435.681 C 401.991 435.457, 402.275 435.053, 402 434.784 C 401.214 434.014, 387.189 425.988, 386.826 426.100 C 386.646 426.156, 384.700 426.614, 382.500 427.120 M 403 429 C 408.542 431.928, 411.578 432.487, 415.794 431.358 C 418.009 430.765, 417.967 430.662, 414.597 428.372 C 411.744 426.433, 409.863 426.009, 404.303 426.047 L 397.500 426.094 403 429 M 476.028 428.981 C 473.570 430.609, 470.308 432.458, 468.780 433.091 C 467.251 433.725, 466.004 434.526, 466.008 434.871 C 466.013 435.217, 469.317 437.258, 473.350 439.407 C 479.356 442.606, 481.300 443.194, 484.092 442.656 C 489.948 441.527, 507 435.828, 507 435.001 C 507 433.907, 495.649 429.522, 489 428.046 C 485.975 427.375, 482.824 426.645, 481.998 426.424 C 481.173 426.203, 478.486 427.354, 476.028 428.981 M 403 440.795 L 397.500 443.475 404.444 443.788 C 409.992 444.037, 411.890 443.726, 413.881 442.239 C 417.968 439.188, 417.669 437.993, 412.833 438.058 C 410.270 438.092, 406.253 439.210, 403 440.795 M 452.158 438.881 C 451.135 439.530, 451.528 440.240, 453.812 441.866 C 456.192 443.561, 458.218 443.990, 463.654 443.953 L 470.500 443.906 465 441 C 459.485 438.086, 454.666 437.292, 452.158 438.881 M 343.639 443.372 C 330.845 451.311, 311.906 466.239, 313.106 467.439 C 314.580 468.913, 331.742 471.209, 345.033 471.710 L 359.566 472.258 362.472 468.379 C 364.071 466.246, 368.902 460.860, 373.208 456.412 L 381.038 448.324 372.769 446.063 C 368.221 444.820, 361.835 442.722, 358.578 441.401 C 355.320 440.080, 352.170 439.026, 351.578 439.057 C 350.985 439.089, 347.413 441.030, 343.639 443.372 M 508.923 441.571 C 505.856 442.860, 499.680 444.973, 495.199 446.267 L 487.051 448.619 492.628 454.060 C 495.695 457.052, 500.685 462.579, 503.718 466.341 L 509.231 473.183 520.866 472.482 C 532.214 471.799, 554.676 468.658, 555.727 467.607 C 557.746 465.587, 520.205 438.753, 515.864 439.113 C 515.114 439.176, 511.990 440.281, 508.923 441.571 M 214.414 447.165 C 201.531 456.084, 190.041 465.821, 177.453 478.485 C 166.636 489.368, 149 509.617, 149 511.154 C 149 512.339, 151.368 513.340, 166.106 518.379 C 189.672 526.438, 227.817 534, 244.899 534 L 249.721 534 252.901 528.034 C 260.836 513.146, 275.015 493.346, 286.647 480.908 C 290.691 476.583, 294 472.837, 294 472.583 C 294 472.329, 290.063 470.927, 285.250 469.467 C 268.363 464.345, 250.670 456.372, 228.414 443.854 L 223.327 440.994 214.414 447.165 M 637 445.152 C 625.005 452.505, 602.621 462.880, 588.315 467.718 L 574.129 472.515 582.114 481.440 C 594.841 495.668, 606.796 512.442, 615.110 527.738 L 618.500 533.976 623.530 533.988 C 636.093 534.018, 662.460 529.631, 683.719 523.975 C 694.336 521.150, 715.095 514.166, 718.442 512.292 C 719.712 511.582, 718.868 510.016, 713.687 503.464 C 704.486 491.829, 685.319 472.292, 672.595 461.578 C 659.989 450.965, 646.344 440.959, 644.645 441.084 C 644.015 441.130, 640.575 442.961, 637 445.152 M 418.041 447.753 C 414.561 449.511, 407.226 458.559, 408.361 459.694 C 409.466 460.799, 420.056 452.983, 421.071 450.313 C 422.558 446.403, 421.868 445.820, 418.041 447.753 M 447.070 449.243 C 447.581 451.027, 448 452.568, 448 452.666 C 448 453.088, 459.508 460, 460.209 460 C 461.865 460, 454.523 449.680, 451.598 447.897 C 446.991 445.087, 445.965 445.392, 447.070 449.243 M 461.208 449.873 C 463.919 455.689, 469.527 463.919, 471.341 464.746 C 475.351 466.573, 494.846 471.161, 497.155 470.822 C 499.030 470.546, 497.919 469.037, 489.422 460.316 L 479.500 450.131 470.208 449.689 C 465.097 449.445, 461.047 449.528, 461.208 449.873 M 383.411 455.250 C 376.329 461.715, 369.417 470.306, 370.899 470.800 C 372.199 471.233, 379.478 469.749, 390.343 466.835 L 398.186 464.731 402.593 457.855 C 405.017 454.074, 407 450.759, 407 450.490 C 407 450.220, 402.986 450, 398.081 450 L 389.161 450 383.411 455.250 M 427.106 453.328 C 424.640 457.319, 422.766 470.881, 424.860 469.587 C 426.950 468.295, 431 459.166, 430.985 455.783 C 430.959 450.226, 429.568 449.346, 427.106 453.328 M 437.656 453.751 C 436.982 457.963, 438.959 464.150, 442.369 468.500 C 443.833 470.368, 443.938 470.021, 443.968 463.266 C 443.997 456.705, 443.735 455.735, 441.155 452.847 L 438.310 449.663 437.656 453.751 M 411 464.732 C 404.394 468.459, 403.294 469.500, 401.774 473.464 C 399.887 478.385, 395.821 497.154, 396.495 497.829 C 397.184 498.517, 411.523 486.064, 415.444 481.373 C 419.054 477.054, 419.076 476.970, 418.789 468.763 L 418.500 460.500 411 464.732 M 449.424 469.040 C 450.048 477.307, 450.490 478.941, 452.928 482 C 456.007 485.862, 470.949 498.384, 471.647 497.686 C 472.304 497.030, 468.209 478.132, 466.357 473.274 C 465.052 469.848, 463.682 468.448, 459.123 465.879 C 456.030 464.135, 452.422 462.005, 451.105 461.144 L 448.709 459.579 449.424 469.040 M 429.648 472.258 C 425.280 478.830, 424.887 479.895, 425.402 483.774 C 426.149 489.409, 431.901 506.673, 433.463 507.969 C 434.902 509.163, 439.093 499.297, 442.088 487.666 L 443.933 480.500 439.970 474.845 C 437.790 471.735, 435.659 468.252, 435.234 467.104 C 434.558 465.277, 433.862 465.919, 429.648 472.258 M 388.507 474.122 C 385.211 475.121, 378.236 476.667, 373.007 477.557 C 367.778 478.446, 363.435 479.247, 363.355 479.337 C 362.276 480.546, 355.262 494.480, 352.450 501 C 348.232 510.779, 343.830 523.164, 344.377 523.711 C 345.796 525.130, 380.211 509.810, 386.132 505.123 C 388.206 503.482, 388.917 501.816, 389.482 497.270 C 389.876 494.097, 391.274 487.257, 392.587 482.071 C 393.901 476.885, 394.869 472.566, 394.738 472.474 C 394.607 472.381, 391.803 473.123, 388.507 474.122 M 473.012 472.643 C 473.019 473.114, 474.127 477.485, 475.475 482.356 C 476.822 487.227, 478.230 493.911, 478.603 497.209 C 479.277 503.165, 479.319 503.229, 484.858 506.772 C 493.932 512.577, 519.619 524, 523.598 524 C 525.664 524, 521.212 512.165, 512.449 494.365 L 504.998 479.230 499.500 478.543 C 494.468 477.915, 478.940 474.103, 474.750 472.469 C 473.788 472.093, 473.006 472.172, 473.012 472.643 M 297.390 481.750 C 283.507 497.324, 271.685 513.589, 263.474 528.413 L 259.645 535.326 276.073 534.699 C 285.108 534.354, 297.870 533.363, 304.433 532.498 C 316.016 530.970, 332.664 527.669, 333.622 526.711 C 333.882 526.451, 335.678 521.797, 337.613 516.369 C 341.760 504.738, 347.179 492.480, 351.154 485.738 C 352.720 483.084, 354 480.776, 354 480.610 C 354 480.444, 348.488 480.022, 341.750 479.671 C 335.012 479.320, 324.100 478.135, 317.500 477.037 C 310.900 475.940, 305.029 475.032, 304.454 475.021 C 303.878 475.009, 300.700 478.038, 297.390 481.750 M 558.897 475.436 C 557.839 476.494, 537.415 479.168, 526.250 479.710 C 519.513 480.037, 514 480.474, 514 480.683 C 514 480.891, 515.801 484.240, 518.003 488.126 C 523.042 497.017, 527.920 508.137, 531.418 518.704 C 533.128 523.871, 534.757 527.096, 535.817 527.417 C 539.484 528.527, 553.065 531.060, 563.010 532.490 C 575.007 534.214, 608 535.710, 608 534.529 C 608 531.857, 591.222 506.074, 582.892 495.944 C 570.293 480.624, 564.673 475, 561.963 475 C 560.517 475, 559.137 475.196, 558.897 475.436 M 412.475 493.788 C 408.639 497.359, 403.071 502.082, 400.102 504.282 L 394.704 508.282 395.318 521.391 C 396.085 537.764, 399.116 556, 401.070 556 C 402.671 556, 415.122 540.626, 422.626 529.383 L 430.046 518.265 427.083 510.866 C 425.453 506.796, 423.069 499.828, 421.785 495.380 L 419.451 487.293 412.475 493.788 M 448.574 488.329 C 446.926 494.714, 443.243 505.767, 440.954 511.201 L 438.131 517.903 443.650 526.701 C 448.978 535.194, 461.653 551.568, 465.809 555.328 C 467.810 557.138, 467.844 557.085, 469.405 549.828 C 471.675 539.269, 473.003 526.894, 472.978 516.526 L 472.957 507.500 467.475 503.573 C 464.460 501.413, 459.042 496.836, 455.435 493.402 C 451.828 489.968, 448.740 487.685, 448.574 488.329 M 381 517.045 C 375.360 520.700, 358.830 527.995, 349.165 531.096 C 345.131 532.390, 341.477 534.135, 341.045 534.974 C 339.930 537.143, 336.201 557.874, 335.048 568.316 C 333.632 581.148, 332.568 608, 333.476 608 C 335.228 608, 349.473 599.497, 359.642 592.381 C 370.846 584.541, 383.928 573.838, 389.928 567.601 L 393.355 564.038 391.081 552.769 C 389.727 546.060, 388.587 535.936, 388.264 527.750 C 387.902 518.607, 387.348 514.022, 386.610 514.064 C 386 514.099, 383.475 515.441, 381 517.045 M 479.735 528.250 C 479.413 536.731, 478.308 546.953, 477.004 553.500 L 474.813 564.500 482.072 571.317 C 491.941 580.586, 510.782 594.632, 523.169 601.955 C 528.792 605.280, 533.824 608, 534.351 608 C 535.695 608, 534.390 574.733, 532.606 563.500 C 529.299 542.676, 527.710 535.464, 526.159 534.230 C 525.280 533.531, 522.805 532.486, 520.658 531.908 C 514.516 530.254, 496.165 522.175, 488.826 517.893 C 485.155 515.752, 481.729 514, 481.213 514 C 480.698 514, 480.033 520.413, 479.735 528.250 M 134.377 530.756 C 115.096 559.839, 97.071 598.028, 87.684 629.686 L 86.146 634.873 92.823 636.388 C 107.181 639.646, 127.198 642.954, 142 644.516 C 167.213 647.175, 214.644 646.608, 215.463 643.637 C 215.636 643.012, 216.760 636.200, 217.962 628.500 C 221.973 602.798, 229.123 578.267, 239.368 555.052 C 242.372 548.246, 243.603 544.373, 242.902 543.939 C 242.310 543.573, 237.841 542.973, 232.972 542.605 C 206.820 540.631, 177.607 533.477, 143 520.571 C 141.936 520.174, 139.431 523.132, 134.377 530.756 M 723.956 520.965 C 720.259 523.129, 694.212 531.415, 680 534.948 C 661.826 539.465, 655.430 540.603, 637.877 542.439 C 630.721 543.188, 624.674 543.993, 624.438 544.229 C 624.203 544.464, 626.200 549.572, 628.877 555.578 C 639.243 578.842, 647.279 606.571, 650.966 631.798 C 651.954 638.562, 652.939 644.272, 653.154 644.487 C 654.235 645.569, 688.220 647.022, 700 646.491 C 726.203 645.308, 763.440 640.091, 779.250 635.386 C 781.767 634.637, 781.500 632.902, 776.640 618.458 C 768.025 592.857, 758.419 571.217, 746.431 550.400 C 740.003 539.239, 727.147 519.984, 726.153 520.030 C 725.794 520.047, 724.805 520.468, 723.956 520.965 M 430 532.183 C 425.074 540.802, 416.430 552.398, 409.054 560.283 L 402.766 567.005 405.448 575.607 C 406.923 580.338, 410.443 589.628, 413.270 596.252 C 418.614 608.770, 431.861 633.120, 433.651 633.717 C 435.421 634.307, 447.140 613.859, 453.549 599 C 458.698 587.063, 465 570.033, 465 568.055 C 465 567.140, 463.383 564.842, 461.406 562.946 C 456.756 558.488, 444.652 542.471, 438.957 533.240 C 436.505 529.267, 434.275 526.027, 434 526.038 C 433.725 526.050, 431.925 528.815, 430 532.183 M 324.500 538.071 C 315.699 540.711, 293.138 543.280, 274.619 543.753 L 254.738 544.261 249.985 554.381 C 243.820 567.509, 237.070 587.089, 232.684 604.565 C 228.953 619.434, 225.244 641.578, 226.307 642.640 C 227.926 644.259, 262.968 636.962, 279.965 631.467 C 292.100 627.544, 303.551 623.069, 315.910 617.420 L 324 613.722 324.003 601.611 C 324.009 583.527, 326.520 560.113, 330.585 540.250 C 331.323 536.645, 330.381 536.308, 324.500 538.071 M 537 537.422 C 537 537.774, 538.089 544.010, 539.421 551.281 C 542.629 568.800, 544 583.393, 544 600.026 L 544 613.704 550.750 616.774 C 570.792 625.890, 592.992 633.515, 612.064 637.835 C 626.193 641.035, 641.707 643.637, 642.396 642.922 C 642.620 642.690, 641.960 636.999, 640.931 630.275 C 638.824 616.520, 634.711 599.362, 629.958 584.500 C 626.734 574.418, 615.666 547.540, 613.810 545.282 C 613.164 544.496, 611.335 544.266, 608.654 544.631 C 599.271 545.912, 555.007 541.303, 539.636 537.445 C 538.186 537.081, 537 537.071, 537 537.422 M 393.500 576.232 C 380.193 589.368, 360.547 604.011, 341.762 614.793 L 333.561 619.500 333.833 624.500 C 334.294 632.972, 337.974 656.903, 340.676 669 C 343.307 680.781, 351.122 705.711, 354.880 714.312 L 356.982 719.124 362.741 714.463 C 376.282 703.502, 391.964 688.691, 401.671 677.694 C 411.091 667.023, 426.617 647.162, 427.656 644.455 C 427.883 643.862, 425.060 638.230, 421.382 631.939 C 412.549 616.827, 405.224 601.211, 400.083 586.529 C 397.777 579.944, 395.803 574.490, 395.695 574.408 C 395.588 574.325, 394.600 575.146, 393.500 576.232 M 468.068 586.750 C 462.818 601.237, 453.195 621.425, 445.604 633.878 L 439.887 643.256 443.597 648.878 C 449.639 658.036, 463.628 674.672, 475.966 687.373 C 489.835 701.651, 510.095 719.305, 511.266 718.134 C 512.539 716.861, 518.558 700.435, 522.415 687.710 C 528.111 668.918, 533.188 641.604, 534.145 624.599 L 534.421 619.698 523.112 612.894 C 505.797 602.476, 485.279 587.200, 477.054 578.602 C 475.158 576.621, 473.319 575, 472.967 575 C 472.614 575, 470.410 580.288, 468.068 586.750 M 543.559 625.706 C 543.252 626.508, 543 628.531, 543 630.202 C 543 637.528, 538.456 663.902, 534.486 679.611 C 532.109 689.023, 527.876 702.825, 525.081 710.283 C 522.287 717.740, 520 724.318, 520 724.899 C 520 727.382, 550.696 746.321, 572.156 757.078 C 589.671 765.858, 630.079 781.254, 631.604 779.729 C 631.867 779.466, 633.638 772.332, 635.539 763.876 C 642.566 732.615, 645.639 701.513, 644.564 672.527 C 644.156 661.544, 643.480 654.297, 642.826 653.892 C 642.237 653.528, 638.998 652.932, 635.628 652.566 C 615.948 650.432, 577.846 639.426, 555.809 629.510 C 546.485 625.314, 544.005 624.544, 543.559 625.706 M 319.473 626.356 C 316.390 628.476, 293.660 637.419, 281.500 641.297 C 267.964 645.614, 246.042 650.654, 233.723 652.282 L 224.500 653.500 223.694 663.500 C 222.661 676.322, 223.553 704.818, 225.508 721.500 C 228.687 748.611, 235.076 779, 237.597 779 C 239.890 779, 262.323 771.262, 276 765.753 C 296.605 757.454, 317.346 746.470, 336.500 733.715 C 350.239 724.565, 349.389 726.706, 344.437 713.719 C 334.939 688.812, 328.181 661.054, 325.819 637.250 C 324.525 624.212, 323.972 623.263, 319.473 626.356 M 428.587 659.051 C 411.853 682.770, 387.134 708.432, 364.068 726.032 L 360.751 728.563 364.003 735.032 C 373.357 753.635, 390.195 779.973, 402.336 794.991 C 410.706 805.345, 426.041 822.776, 430.496 827 L 434.187 830.500 443.238 821 C 467.386 795.653, 488.435 766.190, 502.499 738.049 L 507.222 728.598 504.861 726.722 C 479.542 706.602, 456.196 682.497, 440 659.756 C 436.975 655.508, 434.275 652.045, 434 652.060 C 433.725 652.075, 431.289 655.221, 428.587 659.051" stroke="none" fill="#0a7c39" fill-rule="evenodd"/><path d="M -0 435.001 L -0 870.002 435.250 869.751 L 870.500 869.500 870.751 434.750 L 871.002 -0 435.501 -0 L 0 0 -0 435.001 M 0.495 435.500 C 0.495 674.750, 0.610 772.476, 0.750 652.668 C 0.890 532.861, 0.890 337.111, 0.750 217.668 C 0.610 98.226, 0.495 196.250, 0.495 435.500 M 420.779 41.801 C 394.886 69.684, 375.220 97.247, 360.345 126.500 C 356.710 133.650, 353.596 139.661, 353.426 139.858 C 353.256 140.056, 346.453 135.772, 338.308 130.340 C 320.974 118.777, 294.871 105.209, 275.336 97.606 C 259.930 91.610, 233.794 83, 230.998 83 C 229.495 83, 228.574 85.521, 225.563 97.877 C 217.008 132.983, 213.605 162.284, 214.156 196.089 L 214.508 217.678 185.004 217.222 C 161.738 216.862, 152.434 217.115, 141 218.416 C 116.445 221.211, 76.906 228.694, 74.621 230.979 C 72.570 233.030, 87.734 275.072, 99.122 298.907 C 107.550 316.545, 112.752 325.713, 123.745 342.302 C 128.411 349.343, 132.065 355.246, 131.864 355.420 C 131.664 355.593, 125.580 358.731, 118.345 362.393 C 87.785 377.861, 55.606 401.008, 29.096 426.594 L 19.500 435.855 30 445.767 C 59.708 473.812, 87.920 493.920, 118.958 509.170 C 126.045 512.651, 131.878 515.838, 131.921 516.250 C 131.965 516.663, 129.126 521.163, 125.614 526.250 C 112.991 544.534, 99.655 569.710, 90.101 593.294 C 83.791 608.870, 73.805 638.751, 74.209 640.849 C 74.768 643.748, 107.994 650.840, 136 654.038 C 156.076 656.330, 187.335 657.082, 204.500 655.687 L 214.500 654.874 214.136 677.187 C 213.721 702.609, 215.081 723.054, 218.582 744 C 221.917 763.953, 228.858 792, 230.461 792 C 232.870 792, 268.753 780.006, 278.609 775.906 C 300.090 766.971, 323.241 754.567, 343.505 741.136 C 348.452 737.857, 352.789 735.473, 353.143 735.837 C 353.497 736.202, 357.033 742.575, 361 750 C 376.737 779.451, 395.721 804.999, 425.270 836.494 C 433.063 844.800, 433.846 845.373, 435.517 843.994 C 436.512 843.172, 442.940 836.456, 449.802 829.070 C 476.373 800.464, 495.979 772.874, 511.083 742.836 C 513.734 737.562, 515.469 735.152, 516.281 735.615 C 516.952 735.997, 520.875 738.639, 525 741.485 C 542.682 753.686, 567.865 767.286, 588.370 775.708 C 607.025 783.371, 637.313 793.020, 638.617 791.716 C 639.729 790.604, 646.941 759.510, 649.372 745.347 C 653.596 720.733, 655.392 690.961, 654.120 666.626 L 653.500 654.753 661 655.350 C 698.797 658.358, 736.202 655.686, 773.500 647.311 C 782.300 645.335, 790.513 643.504, 791.750 643.242 C 792.987 642.981, 793.994 642.257, 793.986 641.633 C 793.961 639.637, 786.336 614.836, 782.628 604.690 C 772.401 576.708, 754.896 542.318, 741.808 524.500 C 739.384 521.200, 737.068 517.951, 736.660 517.280 C 736.152 516.443, 739.158 514.437, 746.209 510.905 C 780.972 493.494, 809.280 473.406, 839 445.058 L 848.500 435.996 838.179 426.006 C 810.517 399.230, 784.637 380.570, 751.103 363.226 C 743.071 359.072, 736.351 355.560, 736.168 355.421 C 735.986 355.283, 738.298 351.644, 741.306 347.335 C 753.874 329.333, 766.604 306.111, 776.025 284 C 782.954 267.735, 792.807 239.068, 793.225 233.951 L 793.500 230.595 782 227.828 C 744.983 218.918, 697.732 214.831, 662.642 217.503 L 652.785 218.254 653.522 215.929 C 653.928 214.651, 654.263 203.231, 654.267 190.552 C 654.277 154.142, 650.113 123.671, 639.966 85.885 L 638.996 82.270 632.248 84.138 C 595.554 94.299, 559.590 110.451, 530.500 129.837 C 523.350 134.602, 516.974 138.840, 516.330 139.255 C 515.544 139.762, 512.898 135.656, 508.273 126.755 C 491.655 94.770, 466.626 60.694, 441.834 36.301 L 433.500 28.101 420.779 41.801 M 425.657 51.250 C 401.573 77.764, 382.894 104.203, 368.508 132.138 C 364.929 139.089, 362 145.241, 362 145.808 C 362 146.376, 366.836 150.814, 372.746 155.670 C 393.696 172.883, 415.966 196.288, 429.050 214.840 C 431.439 218.228, 433.673 221, 434.015 221 C 434.356 221, 438.734 215.713, 443.743 209.250 C 453.770 196.315, 468.672 179.900, 479.500 169.863 C 488.058 161.930, 500.488 151.211, 504.376 148.412 L 507.251 146.342 501.072 134.221 C 492.545 117.496, 481.201 99.676, 467.641 81.703 C 456.416 66.826, 435.712 43, 434.009 43 C 433.537 43, 429.779 46.712, 425.657 51.250 M 233.695 106.304 C 225.978 139.071, 221.999 179.865, 223.774 208 L 224.500 219.500 227.500 219.791 C 250.834 222.052, 286.708 231.756, 311.925 242.627 C 318.759 245.573, 324.448 247.875, 324.569 247.742 C 324.690 247.609, 325.536 241.650, 326.450 234.500 C 329.642 209.517, 336.427 182.590, 345.175 160.184 C 349.042 150.281, 349.129 149.812, 347.351 148.438 C 330.634 135.515, 297.041 117.021, 273 107.504 C 263.905 103.904, 238.249 95, 236.970 95 C 236.633 95, 235.159 100.087, 233.695 106.304 M 617 99.451 C 583.675 110.911, 559.146 122.775, 533.500 139.842 C 526.350 144.600, 520.143 148.758, 519.706 149.082 C 519.270 149.407, 520.486 153.574, 522.409 158.343 C 527.381 170.678, 532.701 187.528, 536.028 201.484 C 538.937 213.685, 542.985 238.826, 542.995 244.750 C 542.998 246.537, 543.300 248, 543.668 248 C 544.035 248, 549.997 245.581, 556.918 242.624 C 580.100 232.720, 605.687 225.384, 632.295 221.016 C 638.232 220.041, 643.405 218.928, 643.790 218.544 C 644.174 218.159, 644.477 206.292, 644.464 192.172 C 644.435 162.880, 642.956 147.720, 637.423 120 C 633.042 98.050, 632.216 94.981, 630.711 95.077 C 630.045 95.119, 623.875 97.087, 617 99.451 M 353.728 165.270 C 343.540 191.976, 337.236 218.427, 334.458 246.128 L 333.793 252.756 343.147 258.025 C 359.769 267.388, 384.610 285.382, 391.924 293.357 C 393.258 294.810, 394.833 295.997, 395.424 295.994 C 396.016 295.991, 398.273 291.153, 400.440 285.244 C 405.143 272.420, 415.849 250.433, 423.024 238.864 L 428.198 230.523 426.516 227.399 C 423.558 221.908, 406.996 201.984, 395.569 190.171 C 385.597 179.863, 366.684 162.771, 359.874 157.914 L 357.249 156.041 353.728 165.270 M 499.044 165.639 C 482.641 179.616, 466.056 196.555, 454 211.642 C 438.480 231.065, 439.169 228.759, 445.675 239.500 C 453.535 252.477, 460.508 266.564, 466.700 281.974 C 469.678 289.385, 472.304 295.637, 472.534 295.868 C 472.765 296.098, 476.271 293.317, 480.326 289.688 C 494.144 277.321, 515.031 262.859, 528.658 256.223 L 534.249 253.500 533.652 245 C 532.866 233.818, 529.660 215.288, 526.038 201 C 522.973 188.908, 514.924 164.795, 512.092 159.220 L 510.426 155.940 499.044 165.639 M 146 228.155 C 128.224 229.877, 93.977 235.593, 87.845 237.862 C 86.164 238.483, 86.355 239.472, 90.386 251.017 C 104.084 290.243, 119.110 319.660, 141.072 350.246 C 141.387 350.684, 147.237 349.004, 154.072 346.513 C 179.103 337.390, 207.921 330.646, 233.655 327.890 L 244.810 326.695 241.310 319.097 C 228.851 292.054, 222.063 268.820, 216.302 233.500 L 215.487 228.500 208.493 227.810 C 199.145 226.888, 156.659 227.122, 146 228.155 M 657.501 227.907 L 652.503 228.500 651.716 234.500 C 648.263 260.836, 639.661 291.402, 628.942 315.426 C 626.252 321.453, 624.212 326.545, 624.408 326.741 C 624.603 326.937, 628.969 327.532, 634.109 328.064 C 663.201 331.074, 688.969 337.049, 714.256 346.648 C 720.722 349.103, 726.392 350.876, 726.856 350.589 C 728.390 349.641, 742.641 327.690, 748.878 316.668 C 756.161 303.799, 763.649 288.268, 769.208 274.500 C 773.386 264.156, 782.168 238.835, 781.731 238.398 C 781.594 238.261, 774.962 236.801, 766.991 235.154 C 750.340 231.711, 735.421 229.498, 719 228.033 C 707.007 226.963, 666.166 226.879, 657.501 227.907 M 226 231.401 C 226 235.822, 230.571 258.552, 233.984 271.105 C 238.228 286.715, 242.293 298.054, 249.806 315.238 L 254.500 325.976 261.500 326.024 C 280.154 326.152, 306.201 328.778, 321.453 332.068 C 326.377 333.131, 330.694 334, 331.046 334 C 331.397 334, 330.666 329.063, 329.420 323.029 C 326.022 306.574, 324.828 295.341, 324.420 276 L 324.051 258.500 312.276 253.141 C 292.211 244.011, 262.928 235.267, 239.913 231.535 C 228.241 229.642, 226 229.620, 226 231.401 M 633 230.698 C 609.558 234.685, 574.177 245.162, 555 253.796 L 544.500 258.523 543.871 277.011 C 543.262 294.920, 541.496 310.629, 538.381 325.855 C 537.553 329.900, 537.037 333.371, 537.235 333.568 C 537.432 333.766, 541.848 333.040, 547.047 331.956 C 560.914 329.065, 579.356 327.088, 597.500 326.546 L 613.500 326.068 616.890 318.784 C 629.082 292.584, 638.493 260.877, 641.534 235.750 L 642.230 230 638.865 230.136 C 637.014 230.211, 634.375 230.464, 633 230.698 M 426.781 250.750 C 416.422 269.205, 411.130 280.643, 405.938 295.797 L 403.095 304.095 409.716 311.297 C 416.835 319.043, 424.408 328.957, 430.400 338.378 L 434.138 344.255 440.319 334.820 C 446.424 325.501, 457.338 311.785, 462.396 307.076 C 463.828 305.742, 465 303.978, 465 303.156 C 465 300.399, 453.877 273.615, 448.324 263 C 442.180 251.256, 434.844 239, 433.958 239 C 433.638 239, 430.409 244.287, 426.781 250.750 M 333.525 265.922 C 332.621 268.770, 334.787 303.514, 336.470 313.166 C 337.271 317.761, 338.618 324.807, 339.463 328.825 C 340.308 332.843, 341 336.289, 341 336.483 C 341 336.677, 344.712 338.064, 349.250 339.566 C 360.478 343.282, 373.759 349.101, 380.867 353.419 C 384.109 355.389, 387.040 357, 387.381 357 C 387.721 357, 388.003 352.613, 388.006 347.250 C 388.012 337.161, 389.936 321.836, 392.363 312.540 L 393.757 307.202 387.629 301.276 C 379.339 293.261, 373.499 288.635, 360.500 279.784 C 350.296 272.837, 335.820 264, 334.643 264 C 334.363 264, 333.860 264.865, 333.525 265.922 M 522.985 270.154 C 507.296 279.429, 493.694 289.494, 479.721 302.166 L 474.943 306.500 477.030 316.500 C 478.325 322.700, 479.336 332.294, 479.693 341.750 C 480.009 350.137, 480.446 357, 480.665 357 C 480.883 357, 484.290 355.170, 488.237 352.934 C 496.313 348.357, 510.185 342.336, 520.183 339.067 L 526.867 336.881 528.396 330.157 C 530.948 318.936, 532.893 306.130, 533.963 293.500 C 535.186 279.065, 535.305 264, 534.196 264 C 533.755 264, 528.709 266.769, 522.985 270.154 M 398.639 321.750 C 396.620 331.231, 395.033 346.108, 395.039 355.500 L 395.043 362.500 400.516 366.421 C 403.526 368.577, 408.936 373.246, 412.538 376.794 C 416.139 380.343, 419.225 383.079, 419.394 382.874 C 419.563 382.668, 420.421 379.575, 421.301 376 C 422.180 372.425, 424.445 365.675, 426.334 361 C 429.591 352.938, 429.690 352.345, 428.247 349.500 C 423.868 340.863, 403.303 314, 401.070 314 C 400.641 314, 399.547 317.488, 398.639 321.750 M 459.503 322.659 C 451.554 331.751, 439 349.699, 439 351.971 C 439 352.676, 440.534 357.133, 442.409 361.876 C 444.285 366.619, 446.381 373.087, 447.069 376.250 C 447.756 379.413, 448.701 382, 449.169 382 C 449.637 382, 453.369 378.894, 457.463 375.099 C 461.557 371.303, 466.760 366.915, 469.026 365.349 L 473.146 362.500 472.672 347.500 C 472.227 333.381, 469.849 316.525, 468.039 314.663 C 467.592 314.202, 463.751 317.800, 459.503 322.659 M 236 337.133 C 211.447 339.638, 171.704 349.413, 151.930 357.811 L 147.843 359.546 157.258 370.523 C 170.653 386.140, 192.489 406.945, 206.920 417.838 C 213.724 422.973, 220.322 427.645, 221.582 428.219 C 223.521 429.103, 225.079 428.558, 231.687 424.685 C 245.207 416.762, 268.275 406.138, 281.109 401.924 C 287.906 399.692, 293.620 397.713, 293.806 397.527 C 293.992 397.341, 290.525 393.245, 286.101 388.426 C 274.552 375.844, 253.948 346.333, 250.721 337.750 C 249.993 335.816, 249.227 335.784, 236 337.133 M 262.063 339.750 C 272.046 356.567, 285.411 374.889, 297.653 388.541 L 303.806 395.403 313.153 393.675 C 326.901 391.132, 336.464 390.066, 345.833 390.031 C 350.417 390.014, 354.012 389.663, 353.823 389.250 C 353.634 388.837, 350.949 383.550, 347.857 377.500 C 344.765 371.450, 340.548 361.550, 338.487 355.500 C 336.426 349.450, 334.262 344.195, 333.677 343.822 C 331.992 342.746, 310.961 338.972, 298.178 337.452 C 291.755 336.688, 280.501 336.048, 273.168 336.031 L 259.837 336 262.063 339.750 M 574.500 336.697 C 566.094 337.455, 539.383 342.231, 536.265 343.534 C 534.469 344.284, 533 345.630, 533 346.525 C 533 349.311, 524.120 371.045, 519.016 380.750 L 514.151 390 521.326 390.008 C 530.130 390.018, 543.610 391.479, 555.265 393.686 L 564.030 395.346 567.123 392.423 C 572.911 386.953, 586.203 370.529, 593.002 360.447 C 600.127 349.881, 608 337.300, 608 336.482 C 608 335.950, 580.857 336.124, 574.500 336.697 M 612.179 347.750 C 602.935 363.349, 595.386 373.756, 583.824 386.837 L 574.258 397.659 584.379 400.933 C 600 405.985, 614.217 412.252, 630.038 421.059 L 644.500 429.110 647.650 427.451 C 652.547 424.873, 669.117 412.195, 679.727 402.909 C 688.960 394.828, 709.940 372.961, 716.789 364.281 C 720.670 359.363, 721.267 359.949, 706.914 354.591 C 694.881 350.098, 675.636 344.575, 663.137 342.028 C 654.560 340.280, 624.310 336, 620.533 336 C 619.768 336, 616.009 341.288, 612.179 347.750 M 344.982 349.750 C 347.493 357.947, 350.562 365.551, 354.972 374.500 C 362.857 390.504, 363.008 390.684, 369.172 391.472 C 372.102 391.846, 378.914 393.292, 384.308 394.685 C 389.703 396.077, 394.276 397.056, 394.471 396.858 C 394.666 396.661, 393.792 392.635, 392.529 387.912 C 391.267 383.188, 389.914 376.571, 389.524 373.207 C 389.134 369.843, 388.293 366.663, 387.657 366.141 C 384.792 363.788, 364.628 353.768, 356.288 350.552 C 344.894 346.159, 343.859 346.085, 344.982 349.750 M 512 350.566 C 502.570 354.426, 487.185 361.848, 482.399 364.847 C 479.615 366.591, 479.231 367.441, 478.644 373.145 C 478.285 376.640, 476.907 383.550, 475.583 388.500 C 474.258 393.450, 473.250 397.577, 473.342 397.671 C 473.434 397.765, 477.332 396.734, 482.004 395.380 C 486.677 394.025, 493.751 392.433, 497.725 391.841 L 504.949 390.764 510.459 379.994 C 515.391 370.352, 524 349.888, 524 347.807 C 524 346.284, 520.488 347.092, 512 350.566 M 432.136 364.733 C 429.794 369.324, 425 385.111, 425 388.233 C 425 389.338, 427.104 393.564, 429.677 397.624 L 434.353 405.006 437.055 400.065 C 438.542 397.347, 440.659 393.978, 441.760 392.578 C 443.636 390.194, 443.678 389.635, 442.432 383.766 C 440.944 376.759, 437.949 367.689, 435.716 363.427 L 434.240 360.610 432.136 364.733 M 122 371.833 C 90.283 388.922, 72.384 401.427, 44.715 425.823 L 33.930 435.333 37.215 438.766 C 46.756 448.737, 71.859 468.862, 89.500 480.682 C 105.542 491.430, 134.684 507.097, 138.375 506.957 C 138.994 506.934, 141.300 504.573, 143.500 501.712 C 159.901 480.377, 185.079 456.127, 206.250 441.271 C 210.512 438.281, 213.989 435.533, 213.976 435.167 C 213.963 434.800, 210.476 432.033, 206.228 429.019 C 186.121 414.750, 160.348 390.458, 146 372.252 C 142.425 367.716, 138.825 364.008, 138 364.012 C 137.175 364.017, 129.975 367.536, 122 371.833 M 725.348 369.250 C 719.131 377.162, 700.706 396.577, 690 406.497 C 681.430 414.437, 667.663 425.318, 657.730 432 C 655.686 433.375, 654.022 434.725, 654.033 435 C 654.043 435.275, 656.377 437.075, 659.219 439 C 679.884 452.998, 708.728 480.583, 725.880 502.750 C 727.688 505.087, 729.729 507, 730.414 507 C 732.621 507, 760.230 492.505, 771.536 485.410 C 790.410 473.567, 821.487 448.997, 831.812 437.756 L 834.124 435.239 822.512 424.925 C 799.753 404.708, 781.012 391.299, 755.500 376.978 C 744.786 370.963, 730.975 364, 729.759 364 C 729.602 364, 727.617 366.363, 725.348 369.250 M 396 372.935 C 396 375.001, 399.013 387.902, 400.960 394.172 L 403.032 400.844 410.593 404.922 C 414.751 407.165, 418.344 409, 418.577 409 C 418.810 409, 419 405.360, 419 400.910 L 419 392.821 414.250 387.523 C 409.657 382.400, 397.834 372, 396.604 372 C 396.272 372, 396 372.421, 396 372.935 M 466 376.385 C 462.975 378.795, 458.182 383.182, 455.350 386.134 L 450.200 391.500 449.565 400.250 C 449.215 405.063, 449.283 408.970, 449.715 408.934 C 450.147 408.897, 453.834 406.985, 457.908 404.684 C 464.253 401.100, 465.517 399.926, 466.719 396.500 C 468.434 391.610, 472.197 374.090, 471.793 372.879 C 471.632 372.397, 469.025 373.975, 466 376.385 M 338.083 398.048 C 334.004 398.475, 326.363 399.599, 321.103 400.546 L 311.539 402.268 316.020 406.171 C 328.779 417.288, 347.812 430, 351.697 430 C 352.714 430, 356.910 428.706, 361.023 427.124 C 365.135 425.543, 371.087 423.671, 374.250 422.965 C 377.413 422.259, 380 421.395, 380 421.044 C 380 420.693, 378.168 418.627, 375.928 416.453 C 373.689 414.279, 369.302 409.350, 366.180 405.500 C 363.059 401.650, 360.053 398.169, 359.502 397.765 C 358.277 396.867, 348.081 397.001, 338.083 398.048 M 504.164 403.250 C 501.409 406.688, 496.646 411.960, 493.578 414.966 C 490.510 417.972, 488 420.727, 488 421.088 C 488 421.449, 489.836 422.038, 492.080 422.397 C 494.324 422.756, 500.826 424.770, 506.529 426.874 L 516.899 430.699 521.699 428.065 C 533.243 421.733, 557.197 403.863, 555.891 402.557 C 554.281 400.948, 524.507 397, 513.980 397 C 509.283 397, 509.057 397.144, 504.164 403.250 M 370.998 400.997 C 371.662 402.236, 376.007 407.019, 380.655 411.625 L 389.106 420 397.980 420 L 406.854 420 403.483 414.250 C 401.629 411.087, 399.524 407.686, 398.806 406.692 C 397.367 404.700, 383.680 400.491, 375.146 399.417 C 369.825 398.748, 369.800 398.757, 370.998 400.997 M 491 399.698 C 487.062 400.367, 473.889 404.093, 471.318 405.265 C 470.037 405.849, 467.956 408.165, 466.693 410.413 C 465.431 412.661, 463.582 415.738, 462.584 417.250 L 460.770 420 469.828 420 L 478.886 420 484.930 414.404 C 488.254 411.327, 492.822 406.602, 495.080 403.904 L 499.186 399 496.343 399.136 C 494.779 399.211, 492.375 399.464, 491 399.698 M 424 406.209 C 424 411.457, 424.465 413.215, 426.726 416.518 L 429.452 420.500 430.310 415.882 C 431.052 411.891, 430.820 410.578, 428.603 406.203 C 424.881 398.859, 424 398.860, 424 406.209 M 442.028 402 C 437.408 409.843, 436.274 414.299, 437.867 418.347 C 438.495 419.943, 438.967 419.655, 441.348 416.219 C 443.766 412.730, 444.065 411.469, 443.801 405.873 C 443.511 399.742, 443.444 399.595, 442.028 402 M 289.500 408.418 C 284 410.279, 275.900 413.230, 271.500 414.976 C 263.437 418.176, 238.160 430.892, 234.559 433.561 C 232.637 434.985, 232.637 435.015, 234.559 436.461 C 242.334 442.313, 275.747 457.408, 292.247 462.522 C 302.350 465.654, 299.501 466.731, 316 453.544 C 321.775 448.928, 330.194 442.980, 334.710 440.326 C 339.225 437.672, 342.938 435.245, 342.960 434.934 C 342.982 434.623, 341.087 433.316, 338.750 432.029 C 332.082 428.359, 317.204 417.803, 309.258 411.105 C 305.275 407.747, 301.450 405.008, 300.758 405.017 C 300.066 405.027, 295 406.557, 289.500 408.418 M 559.884 410.534 C 552.192 417.409, 543.582 423.640, 532.923 430.046 L 524.991 434.814 534.745 440.882 C 543.867 446.557, 551.203 451.996, 562.456 461.429 L 567.143 465.358 574.822 463.119 C 591.153 458.357, 611.428 449.322, 631.804 437.727 L 636.109 435.278 631.304 432.215 C 617.579 423.464, 581.096 407.609, 569.816 405.493 C 566.532 404.877, 565.795 405.251, 559.884 410.534 M 407 409.701 C 407 410.155, 408.581 412.875, 410.514 415.745 C 413.657 420.412, 418.163 424, 420.881 424 C 422.219 424, 420.500 418.210, 418.508 416.009 C 416.534 413.827, 407 408.602, 407 409.701 M 455.412 411.950 C 452.656 413.523, 449.927 415.416, 449.346 416.156 C 448.282 417.510, 445.847 424, 446.403 424 C 446.567 424, 448.136 423.500, 449.889 422.889 C 452.043 422.138, 454.390 419.843, 457.128 415.812 C 459.356 412.531, 461.009 409.675, 460.800 409.467 C 460.592 409.259, 458.167 410.376, 455.412 411.950 M 457.419 426.075 C 455.724 426.567, 453.543 427.848, 452.571 428.921 C 450.855 430.818, 450.909 430.892, 454.512 431.568 C 457.461 432.121, 459.421 431.689, 464.109 429.448 C 467.349 427.899, 470 426.265, 470 425.816 C 470 424.750, 461.370 424.928, 457.419 426.075 M 382.500 427.120 C 376.731 428.445, 362.650 433.111, 361.643 434.032 C 360.520 435.057, 362.797 436.188, 372.500 439.428 C 385.430 443.746, 387.536 443.765, 394.368 439.635 C 397.596 437.684, 400.746 435.905, 401.368 435.681 C 401.991 435.457, 402.275 435.053, 402 434.784 C 401.214 434.014, 387.189 425.988, 386.826 426.100 C 386.646 426.156, 384.700 426.614, 382.500 427.120 M 403 429 C 408.542 431.928, 411.578 432.487, 415.794 431.358 C 418.009 430.765, 417.967 430.662, 414.597 428.372 C 411.744 426.433, 409.863 426.009, 404.303 426.047 L 397.500 426.094 403 429 M 476.028 428.981 C 473.570 430.609, 470.308 432.458, 468.780 433.091 C 467.251 433.725, 466.004 434.526, 466.008 434.871 C 466.013 435.217, 469.317 437.258, 473.350 439.407 C 479.356 442.606, 481.300 443.194, 484.092 442.656 C 489.948 441.527, 507 435.828, 507 435.001 C 507 433.907, 495.649 429.522, 489 428.046 C 485.975 427.375, 482.824 426.645, 481.998 426.424 C 481.173 426.203, 478.486 427.354, 476.028 428.981 M 403 440.795 L 397.500 443.475 404.444 443.788 C 409.992 444.037, 411.890 443.726, 413.881 442.239 C 417.968 439.188, 417.669 437.993, 412.833 438.058 C 410.270 438.092, 406.253 439.210, 403 440.795 M 452.158 438.881 C 451.135 439.530, 451.528 440.240, 453.812 441.866 C 456.192 443.561, 458.218 443.990, 463.654 443.953 L 470.500 443.906 465 441 C 459.485 438.086, 454.666 437.292, 452.158 438.881 M 343.639 443.372 C 330.845 451.311, 311.906 466.239, 313.106 467.439 C 314.580 468.913, 331.742 471.209, 345.033 471.710 L 359.566 472.258 362.472 468.379 C 364.071 466.246, 368.902 460.860, 373.208 456.412 L 381.038 448.324 372.769 446.063 C 368.221 444.820, 361.835 442.722, 358.578 441.401 C 355.320 440.080, 352.170 439.026, 351.578 439.057 C 350.985 439.089, 347.413 441.030, 343.639 443.372 M 508.923 441.571 C 505.856 442.860, 499.680 444.973, 495.199 446.267 L 487.051 448.619 492.628 454.060 C 495.695 457.052, 500.685 462.579, 503.718 466.341 L 509.231 473.183 520.866 472.482 C 532.214 471.799, 554.676 468.658, 555.727 467.607 C 557.746 465.587, 520.205 438.753, 515.864 439.113 C 515.114 439.176, 511.990 440.281, 508.923 441.571 M 214.414 447.165 C 201.531 456.084, 190.041 465.821, 177.453 478.485 C 166.636 489.368, 149 509.617, 149 511.154 C 149 512.339, 151.368 513.340, 166.106 518.379 C 189.672 526.438, 227.817 534, 244.899 534 L 249.721 534 252.901 528.034 C 260.836 513.146, 275.015 493.346, 286.647 480.908 C 290.691 476.583, 294 472.837, 294 472.583 C 294 472.329, 290.063 470.927, 285.250 469.467 C 268.363 464.345, 250.670 456.372, 228.414 443.854 L 223.327 440.994 214.414 447.165 M 637 445.152 C 625.005 452.505, 602.621 462.880, 588.315 467.718 L 574.129 472.515 582.114 481.440 C 594.841 495.668, 606.796 512.442, 615.110 527.738 L 618.500 533.976 623.530 533.988 C 636.093 534.018, 662.460 529.631, 683.719 523.975 C 694.336 521.150, 715.095 514.166, 718.442 512.292 C 719.712 511.582, 718.868 510.016, 713.687 503.464 C 704.486 491.829, 685.319 472.292, 672.595 461.578 C 659.989 450.965, 646.344 440.959, 644.645 441.084 C 644.015 441.130, 640.575 442.961, 637 445.152 M 418.041 447.753 C 414.561 449.511, 407.226 458.559, 408.361 459.694 C 409.466 460.799, 420.056 452.983, 421.071 450.313 C 422.558 446.403, 421.868 445.820, 418.041 447.753 M 447.070 449.243 C 447.581 451.027, 448 452.568, 448 452.666 C 448 453.088, 459.508 460, 460.209 460 C 461.865 460, 454.523 449.680, 451.598 447.897 C 446.991 445.087, 445.965 445.392, 447.070 449.243 M 461.208 449.873 C 463.919 455.689, 469.527 463.919, 471.341 464.746 C 475.351 466.573, 494.846 471.161, 497.155 470.822 C 499.030 470.546, 497.919 469.037, 489.422 460.316 L 479.500 450.131 470.208 449.689 C 465.097 449.445, 461.047 449.528, 461.208 449.873 M 383.411 455.250 C 376.329 461.715, 369.417 470.306, 370.899 470.800 C 372.199 471.233, 379.478 469.749, 390.343 466.835 L 398.186 464.731 402.593 457.855 C 405.017 454.074, 407 450.759, 407 450.490 C 407 450.220, 402.986 450, 398.081 450 L 389.161 450 383.411 455.250 M 427.106 453.328 C 424.640 457.319, 422.766 470.881, 424.860 469.587 C 426.950 468.295, 431 459.166, 430.985 455.783 C 430.959 450.226, 429.568 449.346, 427.106 453.328 M 437.656 453.751 C 436.982 457.963, 438.959 464.150, 442.369 468.500 C 443.833 470.368, 443.938 470.021, 443.968 463.266 C 443.997 456.705, 443.735 455.735, 441.155 452.847 L 438.310 449.663 437.656 453.751 M 411 464.732 C 404.394 468.459, 403.294 469.500, 401.774 473.464 C 399.887 478.385, 395.821 497.154, 396.495 497.829 C 397.184 498.517, 411.523 486.064, 415.444 481.373 C 419.054 477.054, 419.076 476.970, 418.789 468.763 L 418.500 460.500 411 464.732 M 449.424 469.040 C 450.048 477.307, 450.490 478.941, 452.928 482 C 456.007 485.862, 470.949 498.384, 471.647 497.686 C 472.304 497.030, 468.209 478.132, 466.357 473.274 C 465.052 469.848, 463.682 468.448, 459.123 465.879 C 456.030 464.135, 452.422 462.005, 451.105 461.144 L 448.709 459.579 449.424 469.040 M 429.648 472.258 C 425.280 478.830, 424.887 479.895, 425.402 483.774 C 426.149 489.409, 431.901 506.673, 433.463 507.969 C 434.902 509.163, 439.093 499.297, 442.088 487.666 L 443.933 480.500 439.970 474.845 C 437.790 471.735, 435.659 468.252, 435.234 467.104 C 434.558 465.277, 433.862 465.919, 429.648 472.258 M 388.507 474.122 C 385.211 475.121, 378.236 476.667, 373.007 477.557 C 367.778 478.446, 363.435 479.247, 363.355 479.337 C 362.276 480.546, 355.262 494.480, 352.450 501 C 348.232 510.779, 343.830 523.164, 344.377 523.711 C 345.796 525.130, 380.211 509.810, 386.132 505.123 C 388.206 503.482, 388.917 501.816, 389.482 497.270 C 389.876 494.097, 391.274 487.257, 392.587 482.071 C 393.901 476.885, 394.869 472.566, 394.738 472.474 C 394.607 472.381, 391.803 473.123, 388.507 474.122 M 473.012 472.643 C 473.019 473.114, 474.127 477.485, 475.475 482.356 C 476.822 487.227, 478.230 493.911, 478.603 497.209 C 479.277 503.165, 479.319 503.229, 484.858 506.772 C 493.932 512.577, 519.619 524, 523.598 524 C 525.664 524, 521.212 512.165, 512.449 494.365 L 504.998 479.230 499.500 478.543 C 494.468 477.915, 478.940 474.103, 474.750 472.469 C 473.788 472.093, 473.006 472.172, 473.012 472.643 M 297.390 481.750 C 283.507 497.324, 271.685 513.589, 263.474 528.413 L 259.645 535.326 276.073 534.699 C 285.108 534.354, 297.870 533.363, 304.433 532.498 C 316.016 530.970, 332.664 527.669, 333.622 526.711 C 333.882 526.451, 335.678 521.797, 337.613 516.369 C 341.760 504.738, 347.179 492.480, 351.154 485.738 C 352.720 483.084, 354 480.776, 354 480.610 C 354 480.444, 348.488 480.022, 341.750 479.671 C 335.012 479.320, 324.100 478.135, 317.500 477.037 C 310.900 475.940, 305.029 475.032, 304.454 475.021 C 303.878 475.009, 300.700 478.038, 297.390 481.750 M 558.897 475.436 C 557.839 476.494, 537.415 479.168, 526.250 479.710 C 519.513 480.037, 514 480.474, 514 480.683 C 514 480.891, 515.801 484.240, 518.003 488.126 C 523.042 497.017, 527.920 508.137, 531.418 518.704 C 533.128 523.871, 534.757 527.096, 535.817 527.417 C 539.484 528.527, 553.065 531.060, 563.010 532.490 C 575.007 534.214, 608 535.710, 608 534.529 C 608 531.857, 591.222 506.074, 582.892 495.944 C 570.293 480.624, 564.673 475, 561.963 475 C 560.517 475, 559.137 475.196, 558.897 475.436 M 412.475 493.788 C 408.639 497.359, 403.071 502.082, 400.102 504.282 L 394.704 508.282 395.318 521.391 C 396.085 537.764, 399.116 556, 401.070 556 C 402.671 556, 415.122 540.626, 422.626 529.383 L 430.046 518.265 427.083 510.866 C 425.453 506.796, 423.069 499.828, 421.785 495.380 L 419.451 487.293 412.475 493.788 M 448.574 488.329 C 446.926 494.714, 443.243 505.767, 440.954 511.201 L 438.131 517.903 443.650 526.701 C 448.978 535.194, 461.653 551.568, 465.809 555.328 C 467.810 557.138, 467.844 557.085, 469.405 549.828 C 471.675 539.269, 473.003 526.894, 472.978 516.526 L 472.957 507.500 467.475 503.573 C 464.460 501.413, 459.042 496.836, 455.435 493.402 C 451.828 489.968, 448.740 487.685, 448.574 488.329 M 381 517.045 C 375.360 520.700, 358.830 527.995, 349.165 531.096 C 345.131 532.390, 341.477 534.135, 341.045 534.974 C 339.930 537.143, 336.201 557.874, 335.048 568.316 C 333.632 581.148, 332.568 608, 333.476 608 C 335.228 608, 349.473 599.497, 359.642 592.381 C 370.846 584.541, 383.928 573.838, 389.928 567.601 L 393.355 564.038 391.081 552.769 C 389.727 546.060, 388.587 535.936, 388.264 527.750 C 387.902 518.607, 387.348 514.022, 386.610 514.064 C 386 514.099, 383.475 515.441, 381 517.045 M 479.735 528.250 C 479.413 536.731, 478.308 546.953, 477.004 553.500 L 474.813 564.500 482.072 571.317 C 491.941 580.586, 510.782 594.632, 523.169 601.955 C 528.792 605.280, 533.824 608, 534.351 608 C 535.695 608, 534.390 574.733, 532.606 563.500 C 529.299 542.676, 527.710 535.464, 526.159 534.230 C 525.280 533.531, 522.805 532.486, 520.658 531.908 C 514.516 530.254, 496.165 522.175, 488.826 517.893 C 485.155 515.752, 481.729 514, 481.213 514 C 480.698 514, 480.033 520.413, 479.735 528.250 M 134.377 530.756 C 115.096 559.839, 97.071 598.028, 87.684 629.686 L 86.146 634.873 92.823 636.388 C 107.181 639.646, 127.198 642.954, 142 644.516 C 167.213 647.175, 214.644 646.608, 215.463 643.637 C 215.636 643.012, 216.760 636.200, 217.962 628.500 C 221.973 602.798, 229.123 578.267, 239.368 555.052 C 242.372 548.246, 243.603 544.373, 242.902 543.939 C 242.310 543.573, 237.841 542.973, 232.972 542.605 C 206.820 540.631, 177.607 533.477, 143 520.571 C 141.936 520.174, 139.431 523.132, 134.377 530.756 M 723.956 520.965 C 720.259 523.129, 694.212 531.415, 680 534.948 C 661.826 539.465, 655.430 540.603, 637.877 542.439 C 630.721 543.188, 624.674 543.993, 624.438 544.229 C 624.203 544.464, 626.200 549.572, 628.877 555.578 C 639.243 578.842, 647.279 606.571, 650.966 631.798 C 651.954 638.562, 652.939 644.272, 653.154 644.487 C 654.235 645.569, 688.220 647.022, 700 646.491 C 726.203 645.308, 763.440 640.091, 779.250 635.386 C 781.767 634.637, 781.500 632.902, 776.640 618.458 C 768.025 592.857, 758.419 571.217, 746.431 550.400 C 740.003 539.239, 727.147 519.984, 726.153 520.030 C 725.794 520.047, 724.805 520.468, 723.956 520.965 M 430 532.183 C 425.074 540.802, 416.430 552.398, 409.054 560.283 L 402.766 567.005 405.448 575.607 C 406.923 580.338, 410.443 589.628, 413.270 596.252 C 418.614 608.770, 431.861 633.120, 433.651 633.717 C 435.421 634.307, 447.140 613.859, 453.549 599 C 458.698 587.063, 465 570.033, 465 568.055 C 465 567.140, 463.383 564.842, 461.406 562.946 C 456.756 558.488, 444.652 542.471, 438.957 533.240 C 436.505 529.267, 434.275 526.027, 434 526.038 C 433.725 526.050, 431.925 528.815, 430 532.183 M 324.500 538.071 C 315.699 540.711, 293.138 543.280, 274.619 543.753 L 254.738 544.261 249.985 554.381 C 243.820 567.509, 237.070 587.089, 232.684 604.565 C 228.953 619.434, 225.244 641.578, 226.307 642.640 C 227.926 644.259, 262.968 636.962, 279.965 631.467 C 292.100 627.544, 303.551 623.069, 315.910 617.420 L 324 613.722 324.003 601.611 C 324.009 583.527, 326.520 560.113, 330.585 540.250 C 331.323 536.645, 330.381 536.308, 324.500 538.071 M 537 537.422 C 537 537.774, 538.089 544.010, 539.421 551.281 C 542.629 568.800, 544 583.393, 544 600.026 L 544 613.704 550.750 616.774 C 570.792 625.890, 592.992 633.515, 612.064 637.835 C 626.193 641.035, 641.707 643.637, 642.396 642.922 C 642.620 642.690, 641.960 636.999, 640.931 630.275 C 638.824 616.520, 634.711 599.362, 629.958 584.500 C 626.734 574.418, 615.666 547.540, 613.810 545.282 C 613.164 544.496, 611.335 544.266, 608.654 544.631 C 599.271 545.912, 555.007 541.303, 539.636 537.445 C 538.186 537.081, 537 537.071, 537 537.422 M 393.500 576.232 C 380.193 589.368, 360.547 604.011, 341.762 614.793 L 333.561 619.500 333.833 624.500 C 334.294 632.972, 337.974 656.903, 340.676 669 C 343.307 680.781, 351.122 705.711, 354.880 714.312 L 356.982 719.124 362.741 714.463 C 376.282 703.502, 391.964 688.691, 401.671 677.694 C 411.091 667.023, 426.617 647.162, 427.656 644.455 C 427.883 643.862, 425.060 638.230, 421.382 631.939 C 412.549 616.827, 405.224 601.211, 400.083 586.529 C 397.777 579.944, 395.803 574.490, 395.695 574.408 C 395.588 574.325, 394.600 575.146, 393.500 576.232 M 468.068 586.750 C 462.818 601.237, 453.195 621.425, 445.604 633.878 L 439.887 643.256 443.597 648.878 C 449.639 658.036, 463.628 674.672, 475.966 687.373 C 489.835 701.651, 510.095 719.305, 511.266 718.134 C 512.539 716.861, 518.558 700.435, 522.415 687.710 C 528.111 668.918, 533.188 641.604, 534.145 624.599 L 534.421 619.698 523.112 612.894 C 505.797 602.476, 485.279 587.200, 477.054 578.602 C 475.158 576.621, 473.319 575, 472.967 575 C 472.614 575, 470.410 580.288, 468.068 586.750 M 543.559 625.706 C 543.252 626.508, 543 628.531, 543 630.202 C 543 637.528, 538.456 663.902, 534.486 679.611 C 532.109 689.023, 527.876 702.825, 525.081 710.283 C 522.287 717.740, 520 724.318, 520 724.899 C 520 727.382, 550.696 746.321, 572.156 757.078 C 589.671 765.858, 630.079 781.254, 631.604 779.729 C 631.867 779.466, 633.638 772.332, 635.539 763.876 C 642.566 732.615, 645.639 701.513, 644.564 672.527 C 644.156 661.544, 643.480 654.297, 642.826 653.892 C 642.237 653.528, 638.998 652.932, 635.628 652.566 C 615.948 650.432, 577.846 639.426, 555.809 629.510 C 546.485 625.314, 544.005 624.544, 543.559 625.706 M 319.473 626.356 C 316.390 628.476, 293.660 637.419, 281.500 641.297 C 267.964 645.614, 246.042 650.654, 233.723 652.282 L 224.500 653.500 223.694 663.500 C 222.661 676.322, 223.553 704.818, 225.508 721.500 C 228.687 748.611, 235.076 779, 237.597 779 C 239.890 779, 262.323 771.262, 276 765.753 C 296.605 757.454, 317.346 746.470, 336.500 733.715 C 350.239 724.565, 349.389 726.706, 344.437 713.719 C 334.939 688.812, 328.181 661.054, 325.819 637.250 C 324.525 624.212, 323.972 623.263, 319.473 626.356 M 428.587 659.051 C 411.853 682.770, 387.134 708.432, 364.068 726.032 L 360.751 728.563 364.003 735.032 C 373.357 753.635, 390.195 779.973, 402.336 794.991 C 410.706 805.345, 426.041 822.776, 430.496 827 L 434.187 830.500 443.238 821 C 467.386 795.653, 488.435 766.190, 502.499 738.049 L 507.222 728.598 504.861 726.722 C 479.542 706.602, 456.196 682.497, 440 659.756 C 436.975 655.508, 434.275 652.045, 434 652.060 C 433.725 652.075, 431.289 655.221, 428.587 659.051" stroke="none" fill="#dadbde" fill-rule="evenodd"/></svg>